<?xml version="1.0" encoding="UTF-8" standalone="no"?>
<!DOCTYPE svg PUBLIC "-//W3C//DTD SVG 1.1//EN"
 "http://www.w3.org/Graphics/SVG/1.1/DTD/svg11.dtd">
<!-- Generated by graphviz version 2.47.0 (20210316.0004)
 -->
<!-- Title: dbml Pages: 1 -->
<svg width="866pt" height="353pt"
 viewBox="0.00 0.00 865.66 353.07" xmlns="http://www.w3.org/2000/svg" xmlns:xlink="http://www.w3.org/1999/xlink">
<g id="graph0" class="graph" transform="scale(1 1) rotate(0) translate(4 349.07)">
<title>dbml</title>
<!-- users -->
<g id="users" class="node">
<title>users</title>
<ellipse fill="none" stroke="black" stroke-width="0" cx="683" cy="-172.53" rx="174.81" ry="172.57"/>
<polygon fill="#1d71b8" stroke="transparent" points="562,-232.53 562,-292.53 805,-292.53 805,-232.53 562,-232.53"/>
<polygon fill="none" stroke="#29235c" points="562,-232.53 562,-292.53 805,-292.53 805,-232.53 562,-232.53"/>
<text text-anchor="start" x="582.14" y="-253.73" font-family="Helvetica,sans-Serif" font-weight="bold" font-size="32.00" fill="#ffffff"> &#160;&#160;&#160;&#160;&#160;&#160;users &#160;&#160;&#160;&#160;&#160;&#160;</text>
<polygon fill="#e7e2dd" stroke="transparent" points="562,-172.53 562,-232.53 805,-232.53 805,-172.53 562,-172.53"/>
<polygon fill="none" stroke="#29235c" points="562,-172.53 562,-232.53 805,-232.53 805,-172.53 562,-172.53"/>
<text text-anchor="start" x="573" y="-193.73" font-family="Helvetica,sans-Serif" font-weight="bold" font-size="32.00" fill="#29235c">id</text>
<text text-anchor="start" x="597.89" y="-193.73" font-family="Helvetica,sans-Serif" font-size="32.00" fill="#29235c"> &#160;&#160;&#160;</text>
<text text-anchor="start" x="760.22" y="-193.73" font-family="Helvetica,sans-Serif" font-style="italic" font-size="32.00" fill="#29235c">int</text>
<polygon fill="#e7e2dd" stroke="transparent" points="562,-112.53 562,-172.53 805,-172.53 805,-112.53 562,-112.53"/>
<polygon fill="none" stroke="#29235c" points="562,-112.53 562,-172.53 805,-172.53 805,-112.53 562,-112.53"/>
<text text-anchor="start" x="572.71" y="-132.73" font-family="Helvetica,sans-Serif" font-size="32.00" fill="#29235c">name &#160;&#160;&#160;</text>
<text text-anchor="start" x="687.67" y="-133.73" font-family="Helvetica,sans-Serif" font-style="italic" font-size="32.00" fill="#29235c">varchar</text>
<polygon fill="#e7e2dd" stroke="transparent" points="562,-52.53 562,-112.53 805,-112.53 805,-52.53 562,-52.53"/>
<polygon fill="none" stroke="#29235c" points="562,-52.53 562,-112.53 805,-112.53 805,-52.53 562,-52.53"/>
<text text-anchor="start" x="573" y="-72.73" font-family="Helvetica,sans-Serif" font-size="32.00" fill="#29235c">email &#160;&#160;&#160;</text>
<text text-anchor="start" x="687.33" y="-73.73" font-family="Helvetica,sans-Serif" font-style="italic" font-size="32.00" fill="#29235c">varchar</text>
<polygon fill="none" stroke="#29235c" stroke-width="2" points="560.5,-51.53 560.5,-293.53 805.5,-293.53 805.5,-51.53 560.5,-51.53"/>
</g>
<!-- orders -->
<g id="orders" class="node">
<title>orders</title>
<ellipse fill="none" stroke="black" stroke-width="0" cx="236.17" cy="-172.53" rx="236.35" ry="172.57"/>
<polygon fill="#1d71b8" stroke="transparent" points="71.17,-232.53 71.17,-292.53 401.17,-292.53 401.17,-232.53 71.17,-232.53"/>
<polygon fill="none" stroke="#29235c" points="71.17,-232.53 71.17,-292.53 401.17,-292.53 401.17,-232.53 71.17,-232.53"/>
<text text-anchor="start" x="128.59" y="-253.73" font-family="Helvetica,sans-Serif" font-weight="bold" font-size="32.00" fill="#ffffff"> &#160;&#160;&#160;&#160;&#160;&#160;orders &#160;&#160;&#160;&#160;&#160;&#160;</text>
<polygon fill="#e7e2dd" stroke="transparent" points="71.17,-172.53 71.17,-232.53 401.17,-232.53 401.17,-172.53 71.17,-172.53"/>
<polygon fill="none" stroke="#29235c" points="71.17,-172.53 71.17,-232.53 401.17,-232.53 401.17,-172.53 71.17,-172.53"/>
<text text-anchor="start" x="82.17" y="-193.73" font-family="Helvetica,sans-Serif" font-weight="bold" font-size="32.00" fill="#29235c">id</text>
<text text-anchor="start" x="107.06" y="-193.73" font-family="Helvetica,sans-Serif" font-size="32.00" fill="#29235c"> &#160;&#160;&#160;</text>
<text text-anchor="start" x="356.39" y="-193.73" font-family="Helvetica,sans-Serif" font-style="italic" font-size="32.00" fill="#29235c">int</text>
<polygon fill="#e7e2dd" stroke="transparent" points="71.17,-112.53 71.17,-172.53 401.17,-172.53 401.17,-112.53 71.17,-112.53"/>
<polygon fill="none" stroke="#29235c" points="71.17,-112.53 71.17,-172.53 401.17,-172.53 401.17,-112.53 71.17,-112.53"/>
<text text-anchor="start" x="82.17" y="-132.73" font-family="Helvetica,sans-Serif" font-size="32.00" fill="#29235c">user_id &#160;&#160;&#160;</text>
<text text-anchor="start" x="356.39" y="-133.73" font-family="Helvetica,sans-Serif" font-style="italic" font-size="32.00" fill="#29235c">int</text>
<polygon fill="#e7e2dd" stroke="transparent" points="71.17,-52.53 71.17,-112.53 401.17,-112.53 401.17,-52.53 71.17,-52.53"/>
<polygon fill="none" stroke="#29235c" points="71.17,-52.53 71.17,-112.53 401.17,-112.53 401.17,-52.53 71.17,-52.53"/>
<text text-anchor="start" x="81.8" y="-72.73" font-family="Helvetica,sans-Serif" font-size="32.00" fill="#29235c">created_at &#160;&#160;&#160;</text>
<text text-anchor="start" x="267.83" y="-73.73" font-family="Helvetica,sans-Serif" font-style="italic" font-size="32.00" fill="#29235c">datetime</text>
<polygon fill="none" stroke="#29235c" stroke-width="2" points="70.17,-51.53 70.17,-293.53 402.17,-293.53 402.17,-51.53 70.17,-51.53"/>
</g>
<!-- orders&#45;&gt;users -->
<!-- orders&#45;&gt;users -->
<g id="edge2" class="edge">
<title>orders:e&#45;&gt;users:w</title>
<path fill="none" stroke="#29235c" stroke-width="3" d="M402.17,-142.53C474.1,-142.53 484.65,-197.04 550.82,-202.15"/>
<polygon fill="#29235c" stroke="#29235c" stroke-width="3" points="550.88,-205.66 561,-202.53 551.14,-198.66 550.88,-205.66"/>
<text text-anchor="middle" x="552.11" y="-173.73" font-family="Helvetica,sans-Serif" font-size="32.00" fill="#29235c">1</text>
<text text-anchor="middle" x="395.95" y="-113.73" font-family="Helvetica,sans-Serif" font-size="32.00" fill="#29235c">*</text>
</g>
</g>
</svg>
